<svg xmlns="http://www.w3.org/2000/svg" viewBox="0 0 296 200" width="296" height="200">
	<style>
		tspan { white-space:pre }
		.shp0 { opacity: 0.996;fill: #ffffff } 
		.shp1 { fill: #ffffff } 
	</style>
	<path id="Path 0" class="shp0" d="M168.04 34.36C166.13 35.04 163.84 36.7 162.96 38.05C162.07 39.4 157.05 46.58 151.8 54C146.56 61.42 139.97 70.88 137.16 75C134.35 79.13 132.04 83.06 132.02 83.75C132.01 84.44 132.45 85 133 85C133.55 85 135.46 84.27 137.25 83.38C139.04 82.48 144.78 78.72 150 75.01C155.22 71.31 162.43 66.42 166 64.15L172.5 60.03C195.58 82.1 205.25 91.13 208.89 94.35C214.82 99.59 215.86 100.14 219 99.71C220.93 99.45 231.05 95.56 241.5 91.08C251.95 86.59 262.52 81.93 265 80.71C267.48 79.49 269.5 77.83 269.5 77C269.5 75.77 267.78 75.5 260 75.51C254.78 75.52 244.32 75.74 236.76 76.01L223.01 76.5C192.39 47.78 181.93 38.27 180 36.85C178.07 35.43 175.38 34.01 174 33.69C172.63 33.38 169.94 33.68 168.04 34.36ZM166.56 82.25C163.78 85.14 156.72 93.35 150.88 100.5C145.04 107.65 129.83 126.1 117.09 141.5C104.34 156.9 92.7 171.43 91.21 173.78C89.72 176.14 88.84 178.28 89.25 178.53C89.66 178.79 91.91 177.61 94.25 175.92C96.59 174.22 112.42 160.39 129.42 145.17C146.43 129.95 163.76 114.7 167.92 111.28L175.5 105.05C190.22 118.83 196.53 124.87 199 127.35L203.5 131.87C187.22 136.67 175.97 140.19 168 142.78C157.87 146.08 153.5 147.95 153.5 149C153.5 150.14 155.29 150.66 161 151.15C165.13 151.51 179.97 152.27 194 152.84C208.03 153.41 223.32 153.74 228 153.58C236.37 153.28 236.55 153.22 239.75 149.64C241.58 147.59 243 144.91 243 143.5C243 142.13 242.36 139.76 241.57 138.25C240.78 136.74 233.69 129.15 225.82 121.39C217.94 113.63 205.65 101.76 198.5 95C191.35 88.24 183.7 81.41 181.5 79.82C179.21 78.17 176.24 76.95 174.56 76.97C172.34 76.99 170.38 78.29 166.56 82.25ZM40.75 97.71C32.99 97.92 29.99 98.35 29.97 99.25C29.96 99.94 32.54 101.27 35.72 102.21C38.9 103.15 46.67 104.82 53 105.93C59.33 107.03 73.28 109.29 84 110.96C94.72 112.63 104.51 113.99 105.75 113.99C106.99 114 109.69 112.48 111.75 110.63C113.81 108.78 116.85 105.37 118.5 103.05C121.04 99.5 121.27 98.71 120 97.94C119.16 97.43 103.72 97.12 85 97.23C66.57 97.34 46.66 97.55 40.75 97.71ZM42.5 123.04C35.9 123.42 29.04 123.79 27.25 123.86C25.18 123.95 24.12 124.46 24.34 125.25C24.52 125.94 27.11 127.24 30.09 128.14C33.06 129.05 45.17 131.65 57 133.93C68.83 136.21 80.39 138.17 82.7 138.28C86.29 138.47 87.41 138 90.49 135C92.47 133.07 95.19 129.81 96.54 127.75C97.9 125.69 98.78 123.55 98.5 123C98.19 122.37 89.93 122.07 76.25 122.18C64.29 122.27 49.1 122.66 42.5 123.04ZM58.5 147.07C51.35 147.53 40.1 148.4 33.5 149.02C26.9 149.64 21.05 150.54 20.5 151.02C19.88 151.55 21.03 152.5 23.5 153.49C25.7 154.37 30.88 155.94 35 156.96C39.13 157.99 47.22 159.85 53 161.1C62.95 163.25 63.64 163.28 66.25 161.68C67.76 160.76 70.83 157.64 73.06 154.75C75.3 151.86 76.98 148.82 76.81 148C76.63 147.18 75.36 146.44 73.99 146.37C72.62 146.31 65.65 146.62 58.5 147.07Z" />
	<path id="Shape 1" class="shp1" d="M221 55C209.94 55 201 46.06 201 35C201 23.94 209.94 15 221 15C232.06 15 241 23.94 241 35C241 46.06 232.06 55 221 55Z" />
</svg>